# xmcd CD database file
#
# Track frame offsets:
#	150
#	23962
#	43365
#	68723
#	83735
#	114965
#	131720
#	149480
#	166910
#	186567
#	210387
#	224562
#	250377
#	282542
#	302602
#	325187
#	343092
#
# Disc length: 4787 seconds
#
# Revision: 0
# Processed by: cddbd v1.5.2PL0 Copyright (c) Steve Scherf et al.
# Submitted via: CDex 1.70beta2
#
DISCID=0e12b111
DTITLE=George Benson - Landy Star Music Collection
DYEAR=2002
DGENRE=Jazz
TTITLE0=My heart is dancing
TTITLE1=Love ballad
TTITLE2=Breezin'
TTITLE3=This masquуrade (Edit)
TTITLE4=Mimosa
TTITLE5=Dinorah, Dinorah
TTITLE6=Being with you
TTITLE7=Turn your love around
TTITLE8=Valdez in the country
TTITLE9=Inside love (So personal)
TTITLE10=Tenderly
TTITLE11=We all rememder wes
TTITLE12=Weekend in L. A.
TTITLE13=Kisses in the moonlight
TTITLE14=That's right
TTITLE15=Lady love me (One more time)
TTITLE16=Lady blue
EXTD=YEAR: 2002
EXTT0=
EXTT1=
EXTT2=
EXTT3=
EXTT4=
EXTT5=
EXTT6=
EXTT7=
EXTT8=
EXTT9=
EXTT10=
EXTT11=
EXTT12=
EXTT13=
EXTT14=
EXTT15=
EXTT16=
PLAYORDER=
